<svg width="48" height="48" viewBox="0 0 48 48" fill="none" xmlns="http://www.w3.org/2000/svg">
<g filter="url(#filter0_d_128_198)">
<mask id="path-1-inside-1_128_198" fill="white">
<path d="M23.994 37.0239L20.523 39.9238L18.235 36.0039L13.995 37.5159L13.173 33.0359L8.67999 32.991L9.41199 28.491L5.20398 26.8909L7.414 22.925L4 19.96L7.41199 16.9929L5.20203 13.0278L9.41101 11.428L8.67798 6.93286L13.172 6.88892L13.994 2.40894L18.234 3.91992L20.522 0L23.993 2.8999L27.464 0L29.753 3.9209L33.993 2.40894L34.814 6.88989L39.308 6.93481L38.576 11.4299L42.784 13.03L40.574 16.9958L43.986 19.9609L40.574 22.928L42.783 26.894L38.574 28.4939L39.307 32.988L34.812 33.033L33.991 37.5139L29.753 36.0029L27.464 39.9229L23.994 37.0239ZM25.2 35.541L26.961 37.012L28.122 35.022L28.914 33.666L30.382 34.189L32.533 34.957L32.95 32.6838L33.235 31.1289L34.796 31.113L37.078 31.092L36.706 28.8098L36.452 27.25L37.911 26.696L40.045 25.8828L38.925 23.873L38.159 22.498L39.342 21.4709L41.076 19.9609L39.343 18.4609L38.16 17.4319L38.926 16.0559L40.047 14.0449L37.913 13.2339L36.454 12.6809L36.709 11.1208L37.081 8.83984L34.799 8.81689L33.239 8.80103L32.954 7.24683L32.538 4.97388L30.386 5.74097L28.918 6.26392L28.125 4.90698L26.963 2.91699L25.201 4.38794L23.996 5.39282L22.791 4.38794L21.03 2.91699L19.869 4.90601L19.077 6.26294L17.608 5.73999L15.458 4.97192L15.04 7.24585L14.755 8.80005L13.195 8.81592L10.914 8.83789L11.286 11.1199L11.54 12.678L10.081 13.2329L7.94598 14.0439L9.06702 16.0549L9.83301 17.4299L8.65002 18.459L6.91602 19.967L8.64899 21.4739L9.83197 22.5029L9.06598 23.8779L7.94501 25.8879L10.078 26.698L11.538 27.2529L11.283 28.812L10.912 31.0959L13.193 31.1189L14.753 31.135L15.038 32.6899L15.455 34.9619L17.607 34.1948L19.076 33.6719L19.868 35.0288L21.03 37.019L22.791 35.5479L23.996 34.543L25.2 35.541ZM25.318 23.02C25.318 20.093 26.883 18.4648 28.777 18.4648C30.783 18.4648 32.077 20.0279 32.077 22.7949C32.077 25.8539 30.492 27.3718 28.662 27.3718C26.883 27.3718 25.338 25.922 25.318 23.02ZM26.839 22.9319C26.816 24.7829 27.521 26.1899 28.711 26.1899C29.988 26.1899 30.561 24.8049 30.561 22.8899C30.561 21.1249 30.054 19.6528 28.711 19.6528C27.5 19.6488 26.839 21.1029 26.839 22.9309V22.9319ZM19.194 27.332L27.609 12.613H28.842L20.427 27.332H19.194ZM15.979 16.99C15.979 14.09 17.542 12.458 19.437 12.458C21.437 12.458 22.763 14.022 22.763 16.79C22.763 19.848 21.177 21.365 19.327 21.365C17.544 21.365 16 19.915 15.979 16.991V16.99ZM17.521 16.9238C17.477 18.7748 18.162 20.1809 19.371 20.1829C20.648 20.1829 21.221 18.7988 21.221 16.8828C21.221 15.1168 20.714 13.645 19.371 13.645C18.162 13.642 17.521 15.092 17.521 16.925V16.9238Z"/>
</mask>
<path d="M23.994 37.0239L20.523 39.9238L18.235 36.0039L13.995 37.5159L13.173 33.0359L8.67999 32.991L9.41199 28.491L5.20398 26.8909L7.414 22.925L4 19.96L7.41199 16.9929L5.20203 13.0278L9.41101 11.428L8.67798 6.93286L13.172 6.88892L13.994 2.40894L18.234 3.91992L20.522 0L23.993 2.8999L27.464 0L29.753 3.9209L33.993 2.40894L34.814 6.88989L39.308 6.93481L38.576 11.4299L42.784 13.03L40.574 16.9958L43.986 19.9609L40.574 22.928L42.783 26.894L38.574 28.4939L39.307 32.988L34.812 33.033L33.991 37.5139L29.753 36.0029L27.464 39.9229L23.994 37.0239ZM25.2 35.541L26.961 37.012L28.122 35.022L28.914 33.666L30.382 34.189L32.533 34.957L32.95 32.6838L33.235 31.1289L34.796 31.113L37.078 31.092L36.706 28.8098L36.452 27.25L37.911 26.696L40.045 25.8828L38.925 23.873L38.159 22.498L39.342 21.4709L41.076 19.9609L39.343 18.4609L38.16 17.4319L38.926 16.0559L40.047 14.0449L37.913 13.2339L36.454 12.6809L36.709 11.1208L37.081 8.83984L34.799 8.81689L33.239 8.80103L32.954 7.24683L32.538 4.97388L30.386 5.74097L28.918 6.26392L28.125 4.90698L26.963 2.91699L25.201 4.38794L23.996 5.39282L22.791 4.38794L21.03 2.91699L19.869 4.90601L19.077 6.26294L17.608 5.73999L15.458 4.97192L15.04 7.24585L14.755 8.80005L13.195 8.81592L10.914 8.83789L11.286 11.1199L11.54 12.678L10.081 13.2329L7.94598 14.0439L9.06702 16.0549L9.83301 17.4299L8.65002 18.459L6.91602 19.967L8.64899 21.4739L9.83197 22.5029L9.06598 23.8779L7.94501 25.8879L10.078 26.698L11.538 27.2529L11.283 28.812L10.912 31.0959L13.193 31.1189L14.753 31.135L15.038 32.6899L15.455 34.9619L17.607 34.1948L19.076 33.6719L19.868 35.0288L21.03 37.019L22.791 35.5479L23.996 34.543L25.2 35.541ZM25.318 23.02C25.318 20.093 26.883 18.4648 28.777 18.4648C30.783 18.4648 32.077 20.0279 32.077 22.7949C32.077 25.8539 30.492 27.3718 28.662 27.3718C26.883 27.3718 25.338 25.922 25.318 23.02ZM26.839 22.9319C26.816 24.7829 27.521 26.1899 28.711 26.1899C29.988 26.1899 30.561 24.8049 30.561 22.8899C30.561 21.1249 30.054 19.6528 28.711 19.6528C27.5 19.6488 26.839 21.1029 26.839 22.9309V22.9319ZM19.194 27.332L27.609 12.613H28.842L20.427 27.332H19.194ZM15.979 16.99C15.979 14.09 17.542 12.458 19.437 12.458C21.437 12.458 22.763 14.022 22.763 16.79C22.763 19.848 21.177 21.365 19.327 21.365C17.544 21.365 16 19.915 15.979 16.991V16.99ZM17.521 16.9238C17.477 18.7748 18.162 20.1809 19.371 20.1829C20.648 20.1829 21.221 18.7988 21.221 16.8828C21.221 15.1168 20.714 13.645 19.371 13.645C18.162 13.642 17.521 15.092 17.521 16.925V16.9238Z" fill="#ED697B"/>
<path d="M23.994 37.0239L20.523 39.9238L18.235 36.0039L13.995 37.5159L13.173 33.0359L8.67999 32.991L9.41199 28.491L5.20398 26.8909L7.414 22.925L4 19.96L7.41199 16.9929L5.20203 13.0278L9.41101 11.428L8.67798 6.93286L13.172 6.88892L13.994 2.40894L18.234 3.91992L20.522 0L23.993 2.8999L27.464 0L29.753 3.9209L33.993 2.40894L34.814 6.88989L39.308 6.93481L38.576 11.4299L42.784 13.03L40.574 16.9958L43.986 19.9609L40.574 22.928L42.783 26.894L38.574 28.4939L39.307 32.988L34.812 33.033L33.991 37.5139L29.753 36.0029L27.464 39.9229L23.994 37.0239ZM25.2 35.541L26.961 37.012L28.122 35.022L28.914 33.666L30.382 34.189L32.533 34.957L32.95 32.6838L33.235 31.1289L34.796 31.113L37.078 31.092L36.706 28.8098L36.452 27.25L37.911 26.696L40.045 25.8828L38.925 23.873L38.159 22.498L39.342 21.4709L41.076 19.9609L39.343 18.4609L38.16 17.4319L38.926 16.0559L40.047 14.0449L37.913 13.2339L36.454 12.6809L36.709 11.1208L37.081 8.83984L34.799 8.81689L33.239 8.80103L32.954 7.24683L32.538 4.97388L30.386 5.74097L28.918 6.26392L28.125 4.90698L26.963 2.91699L25.201 4.38794L23.996 5.39282L22.791 4.38794L21.03 2.91699L19.869 4.90601L19.077 6.26294L17.608 5.73999L15.458 4.97192L15.04 7.24585L14.755 8.80005L13.195 8.81592L10.914 8.83789L11.286 11.1199L11.54 12.678L10.081 13.2329L7.94598 14.0439L9.06702 16.0549L9.83301 17.4299L8.65002 18.459L6.91602 19.967L8.64899 21.4739L9.83197 22.5029L9.06598 23.8779L7.94501 25.8879L10.078 26.698L11.538 27.2529L11.283 28.812L10.912 31.0959L13.193 31.1189L14.753 31.135L15.038 32.6899L15.455 34.9619L17.607 34.1948L19.076 33.6719L19.868 35.0288L21.03 37.019L22.791 35.5479L23.996 34.543L25.2 35.541ZM25.318 23.02C25.318 20.093 26.883 18.4648 28.777 18.4648C30.783 18.4648 32.077 20.0279 32.077 22.7949C32.077 25.8539 30.492 27.3718 28.662 27.3718C26.883 27.3718 25.338 25.922 25.318 23.02ZM26.839 22.9319C26.816 24.7829 27.521 26.1899 28.711 26.1899C29.988 26.1899 30.561 24.8049 30.561 22.8899C30.561 21.1249 30.054 19.6528 28.711 19.6528C27.5 19.6488 26.839 21.1029 26.839 22.9309V22.9319ZM19.194 27.332L27.609 12.613H28.842L20.427 27.332H19.194ZM15.979 16.99C15.979 14.09 17.542 12.458 19.437 12.458C21.437 12.458 22.763 14.022 22.763 16.79C22.763 19.848 21.177 21.365 19.327 21.365C17.544 21.365 16 19.915 15.979 16.991V16.99ZM17.521 16.9238C17.477 18.7748 18.162 20.1809 19.371 20.1829C20.648 20.1829 21.221 18.7988 21.221 16.8828C21.221 15.1168 20.714 13.645 19.371 13.645C18.162 13.642 17.521 15.092 17.521 16.925V16.9238Z" stroke="#F16D7F" stroke-width="2" mask="url(#path-1-inside-1_128_198)"/>
</g>
<defs>
<filter id="filter0_d_128_198" x="0" y="0" width="47.9863" height="47.9238" filterUnits="userSpaceOnUse" color-interpolation-filters="sRGB">
<feFlood flood-opacity="0" result="BackgroundImageFix"/>
<feColorMatrix in="SourceAlpha" type="matrix" values="0 0 0 0 0 0 0 0 0 0 0 0 0 0 0 0 0 0 127 0" result="hardAlpha"/>
<feOffset dy="4"/>
<feGaussianBlur stdDeviation="2"/>
<feComposite in2="hardAlpha" operator="out"/>
<feColorMatrix type="matrix" values="0 0 0 0 0 0 0 0 0 0 0 0 0 0 0 0 0 0 0.25 0"/>
<feBlend mode="normal" in2="BackgroundImageFix" result="effect1_dropShadow_128_198"/>
<feBlend mode="normal" in="SourceGraphic" in2="effect1_dropShadow_128_198" result="shape"/>
</filter>
</defs>
</svg>
